<svg viewBox="0 0 292 48" xmlns:xlink="http://www.w3.org/1999/xlink" class="logo___DN8vc"><defs><path d="M14.192 28.342C6.354 28.342 0 21.997 0 14.17S6.354 0 14.192 0s14.193 6.345 14.193 14.171-6.355 14.17-14.193 14.17zm0-2.362c6.532 0 11.827-5.287 11.827-11.809 0-6.522-5.295-11.81-11.827-11.81S2.365 7.65 2.365 14.172s5.295 11.81 11.827 11.81z" id="prefix__a"></path><path d="M14.192 28.342C6.354 28.342 0 21.997 0 14.17S6.354 0 14.192 0s14.193 6.345 14.193 14.171-6.355 14.17-14.193 14.17zm0-2.362c6.532 0 11.827-5.287 11.827-11.809 0-6.522-5.295-11.81-11.827-11.81S2.365 7.65 2.365 14.172s5.295 11.81 11.827 11.81z" id="prefix__c"></path></defs><g fill="none" fill-rule="evenodd"><path d="M-6-42h320V90.414H-6z"></path><path d="M39.551 39.788c.174-.11.329-.271.456-.487.602-1.026.345-2.885-.574-4.151-.505-.697-1.105-1.069-1.643-1.093-.279-3.061.552-5.591 1.413-7.448 1.808-3.898 6.076-7.173 10.377-7.76 4.301-.586 7.879.365 10.017 4.337 1.91 3.548-.125 8.395-3.332 10.053-.566.292-1.478.245-1.833-.319-.355-.563-.226-1.3.188-1.68.986-1.11.774-2.854.583-3.396-.662-1.879-2.42-2.394-3.22-2.4-2.441-.018-3.99 1.165-5.071 2.736-1.081 1.57-1.141 4.332-.17 6.047 1.213 2.14 3.854 3.567 7.878 3.654 2.99.066 9.05-1.513 11.57-7.066 2.523-5.552 1.264-11.264-3.43-15.04-5.053-4.067-11.542-3.192-16.565-.073-.792.492-2.044 1.49-3.258 2.638-.282.267-.776.74-1.731 1.793a303.403 303.403 0 01-3.51 3.825c-1.802 1.907-4.3 3.82-7.26 6.062-2.222 1.683-7.328 4.352-9.93 5.455-4.233 1.792-8.446 2.822-12.455 3.568-1.684.313-3.753.426-5.465.504v5.502l21.842-3.276v-6.926l1.927-1.06v9.645L.66 47.287V39.64c-.021-.037 0-20.331 0-22.472V1.034L26.355 4.89v8.32l-1.927 1.088V6.549L2.586 3.272v14.582c2.1.672 5.442 1.485 9.135 1.244 5.255-.341 9.886-2.187 14.202-4.35 1.064-.532 3.236-1.781 4.896-2.963 1.661-1.18 3.264-2.437 4.473-3.352 5.278-3.99 8.796-5.27 9.654-5.556C51.556.671 57.69.82 62.329 2.384c7.816 2.635 12.492 9.01 14.43 15.333 3.371 11.004-1.904 19.11-6.721 23.66-1.039.981-2.426 1.985-3.647 2.699a1.485 1.485 0 00-.608-.484c-1.216-.567-3.367-.144-4.804.944-.922.698-1.326 1.501-1.176 2.137a24.354 24.354 0 01-8.192.494c.073-.3.025-.643-.165-1.008-.652-1.255-2.726-2.305-4.633-2.344-1.232-.025-2.092.377-2.372 1.003-2.11-1.334-3.863-3.13-4.763-4.793l-.127-.237zm116.602-26.587l-1.672 1.671a11.799 11.799 0 00-8.346-3.442c-6.532 0-11.827 5.287-11.827 11.81 0 6.521 5.295 11.809 11.827 11.809a11.8 11.8 0 008.376-3.472l1.672 1.67a14.159 14.159 0 01-10.048 4.163c-7.838 0-14.192-6.344-14.192-14.17 0-7.827 6.354-14.172 14.192-14.172 3.91 0 7.45 1.58 10.018 4.133z" fill="#4E2ECB"></path><g fill="#4E2ECB"><path d="M162.598 4.487h2.365v33.066h-2.365z"></path><path d="M164.963 9.069h4.731v2.362h-4.73z"></path></g><path d="M188.617 37.41c-7.838 0-14.192-6.344-14.192-14.17 0-7.827 6.354-14.172 14.192-14.172s14.193 6.345 14.193 14.171c0 7.827-6.355 14.171-14.193 14.171zm0-2.361c6.532 0 11.827-5.288 11.827-11.81S195.15 11.43 188.617 11.43c-6.531 0-11.827 5.287-11.827 11.81 0 6.521 5.296 11.809 11.827 11.809z" fill="#4E2ECB"></path><g transform="translate(270 9.777)"><mask id="prefix__b" fill="#fff"><use xlink:href="#prefix__a"></use></mask><path fill="#4E2ECB" mask="url(#prefix__b)" d="M0 0h14.192v14.171H0z"></path></g><g transform="rotate(180 145.762 18.776)"><mask id="prefix__d" fill="#fff"><use xlink:href="#prefix__c"></use></mask><path fill="#4E2ECB" mask="url(#prefix__d)" d="M0 0h14.192v14.171H0z"></path></g><path d="M113.02 37.41c-7.838 0-14.192-6.344-14.192-14.17 0-7.827 6.354-14.172 14.192-14.172s14.192 6.345 14.192 14.171c0 7.827-6.354 14.171-14.192 14.171zm0-2.361c6.532 0 11.827-5.288 11.827-11.81S119.552 11.43 113.02 11.43s-11.827 5.287-11.827 11.81c0 6.521 5.295 11.809 11.827 11.809z" fill="#4E2ECB"></path><g fill="#4E2ECB"><path d="M222.679 37.552c-7.838 0-14.193-6.344-14.193-14.17 0-7.827 6.355-14.172 14.193-14.172 7.838 0 14.192 6.345 14.192 14.171 0 7.827-6.354 14.171-14.192 14.171zm0-2.362c6.532 0 11.827-5.287 11.827-11.809 0-6.522-5.295-11.809-11.827-11.809s-11.827 5.287-11.827 11.81c0 6.521 5.295 11.808 11.827 11.808z"></path><path d="M208.486 23.381h2.365v18.753h-2.365z"></path></g><path d="M243.98 10.486v15.101a9.462 9.462 0 0018.923 0V10.486h2.365v15.098c0 6.531-5.295 11.826-11.827 11.826-6.531 0-11.826-5.295-11.826-11.826V10.486h2.365z" fill="#4E2ECB"></path></g></svg>
